<svg xmlns="http://www.w3.org/2000/svg" viewBox="0 0 50 50"><path d="M41.8 4.2c-3 0-4.9 1.7-5.8 3.2-3-1.6-6.7-2.5-11-2.5s-8 .9-11 2.5c-.9-1.5-2.7-3.2-5.8-3.2-2.9 0-4.9 2.2-4.9 5.4 0 3.4 2.5 7 3 7.6-.6 1.9-.8 4-.8 6.3 0 12.8 10.4 22.4 19.6 22.4 9.3 0 19.6-9.6 19.6-22.4 0-2.3-.3-4.4-.8-6.3.5-.6 3-4.2 3-7.6-.1-3.2-2.2-5.4-5.1-5.4zM5.7 9.6c0-1.8.9-2.9 2.4-2.9 2.2 0 3.2 1.3 3.7 2.1-1.9 1.5-3.4 3.3-4.5 5.5-.7-1.2-1.6-3.1-1.6-4.7zM25 43.3c-9.6 0-17.1-10.7-17.1-19.9 0-10.3 6.1-16 17.1-16 11 0 17.1 5.7 17.1 16.1 0 9.1-7.5 19.8-17.1 19.8zm17.7-29c-1.1-2.2-2.6-4.1-4.5-5.5.4-.8 1.5-2.1 3.7-2.1 1.5 0 2.4 1.1 2.4 2.9 0 1.6-.9 3.5-1.6 4.7z"/><path d="M32.6 19.3c-2 0-3.6 1.5-3.8 1.7-.3.3-.4.7-.4 1.1 0 .1 1 7.1 1 10 0 .5-.1.8-.4 1.1-.4.4-1.1.7-1.8.7-.6 0-1.1-.1-1.4-.4-.5-.4-1.1-.4-1.6 0-.3.2-.8.4-1.4.4-.7 0-1.4-.2-1.8-.7-.3-.3-.4-.6-.4-1.1 0-2.9.9-9.9 1-10 .1-.4-.1-.8-.4-1.1-.2-.2-1.7-1.7-3.8-1.7-1.9 0-2.9 1.2-3.2 1.9-.2.6.1 1.4.7 1.6.6.3 1.4 0 1.6-.7 0-.1.2-.4.9-.4.6 0 1.1.3 1.5.6-.2 1.9-.9 7.1-.9 9.7 0 .7.2 1.4.5 2 0 .6-.1 2.9 1.4 4.6 1.1 1.3 2.8 1.9 5 1.9s3.8-.6 5-1.9c1.5-1.7 1.5-4 1.4-4.6.3-.6.5-1.3.5-2 0-2.5-.6-7.8-.9-9.7.4-.3 1-.6 1.5-.6.6 0 .8.3.9.4.3.6 1 .9 1.6.7.6-.2 1-1 .7-1.6-.1-.7-1.1-1.9-3-1.9zM25 38.1c-1.4 0-2.5-.4-3.1-1.1-.2-.3-.4-.6-.5-.9.5.1 1 .2 1.5.2.8 0 1.5-.2 2.1-.4.6.3 1.4.4 2.1.4.5 0 1-.1 1.5-.2-.1.3-.3.6-.5.9-.6.7-1.7 1.1-3.1 1.1z"/><path d="M24.1 31.8c.2.2.6.4.9.4.3 0 .7-.1.9-.4l1.2-1.3c.5-.5.5-1.3 0-1.8s-1.3-.5-1.8 0l-.3.5-.3-.4c-.5-.5-1.3-.5-1.8 0s-.5 1.3 0 1.8l1.2 1.2z"/></svg>