<?xml version="1.0" encoding="UTF-8" standalone="no"?>
<svg
   xmlns:dc="http://purl.org/dc/elements/1.1/"
   xmlns:cc="http://creativecommons.org/ns#"
   xmlns:rdf="http://www.w3.org/1999/02/22-rdf-syntax-ns#"
   xmlns:svg="http://www.w3.org/2000/svg"
   xmlns="http://www.w3.org/2000/svg"
   xmlns:sodipodi="http://sodipodi.sourceforge.net/DTD/sodipodi-0.dtd"
   xmlns:inkscape="http://www.inkscape.org/namespaces/inkscape"
   viewBox="0 0 43.599998 41.700001"
   version="1.1"
   id="svg8"
   sodipodi:docname="bear-face.svg"
   width="43.599998"
   height="41.700001"
   inkscape:export-filename="C:\Users\karls\Google Drive\Business-Projekte\Schleifenbaum Online Services\Website\Omnivore\logo\bear-face.png"
   inkscape:export-xdpi="71.366905"
   inkscape:export-ydpi="71.366905"
   inkscape:version="1.0.1 (3bc2e813f5, 2020-09-07)">
  <metadata
     id="metadata14">
    <rdf:RDF>
      <cc:Work
         rdf:about="">
        <dc:format>image/svg+xml</dc:format>
        <dc:type
           rdf:resource="http://purl.org/dc/dcmitype/StillImage" />
        <dc:title></dc:title>
      </cc:Work>
    </rdf:RDF>
  </metadata>
  <defs
     id="defs12" />
  <sodipodi:namedview
     pagecolor="#ffffff"
     bordercolor="#666666"
     borderopacity="1"
     objecttolerance="10"
     gridtolerance="10"
     guidetolerance="10"
     inkscape:pageopacity="0"
     inkscape:pageshadow="2"
     inkscape:window-width="1920"
     inkscape:window-height="1017"
     id="namedview10"
     showgrid="false"
     fit-margin-top="0"
     fit-margin-left="0"
     fit-margin-right="0"
     fit-margin-bottom="0"
     inkscape:zoom="17"
     inkscape:cx="21.7"
     inkscape:cy="20.8"
     inkscape:window-x="-8"
     inkscape:window-y="-8"
     inkscape:window-maximized="1"
     inkscape:current-layer="svg8" />
  <path
     d="m 38.5,0 c -3,0 -4.9,1.7 -5.8,3.2 -3,-1.6 -6.7,-2.5 -11,-2.5 -4.3,0 -8,0.9 -11,2.5 C 9.8,1.7 8,0 4.9,0 2,0 0,2.2 0,5.4 c 0,3.4 2.5,7 3,7.6 -0.6,1.9 -0.8,4 -0.8,6.3 0,12.8 10.4,22.4 19.6,22.4 9.3,0 19.6,-9.6 19.6,-22.4 0,-2.3 -0.3,-4.4 -0.8,-6.3 0.5,-0.6 3,-4.2 3,-7.6 C 43.5,2.2 41.4,0 38.5,0 Z M 2.4,5.4 C 2.4,3.6 3.3,2.5 4.8,2.5 7,2.5 8,3.8 8.5,4.6 6.6,6.1 5.1,7.9 4,10.1 3.3,8.9 2.4,7 2.4,5.4 Z M 21.7,39.1 C 12.1,39.1 4.6,28.4 4.6,19.2 c 0,-10.3 6.1,-16 17.1,-16 11,0 17.1,5.7 17.1,16.1 0,9.1 -7.5,19.8 -17.1,19.8 z m 17.7,-29 C 38.3,7.9 36.8,6 34.9,4.6 35.3,3.8 36.4,2.5 38.6,2.5 40.1,2.5 41,3.6 41,5.4 41,7 40.1,8.9 39.4,10.1 Z"
     id="path2"
     style="fill:#4c6b9b;fill-opacity:1" />
  <path
     d="m 29.3,15.1 c -2,0 -3.6,1.5 -3.8,1.7 -0.3,0.3 -0.4,0.7 -0.4,1.1 0,0.1 1,7.1 1,10 0,0.5 -0.1,0.8 -0.4,1.1 -0.4,0.4 -1.1,0.7 -1.8,0.7 -0.6,0 -1.1,-0.1 -1.4,-0.4 -0.5,-0.4 -1.1,-0.4 -1.6,0 -0.3,0.2 -0.8,0.4 -1.4,0.4 -0.7,0 -1.4,-0.2 -1.8,-0.7 -0.3,-0.3 -0.4,-0.6 -0.4,-1.1 0,-2.9 0.9,-9.9 1,-10 0.1,-0.4 -0.1,-0.8 -0.4,-1.1 -0.2,-0.2 -1.7,-1.7 -3.8,-1.7 -1.9,0 -2.9,1.2 -3.2,1.9 -0.2,0.6 0.1,1.4 0.7,1.6 0.6,0.3 1.4,0 1.6,-0.7 0,-0.1 0.2,-0.4 0.9,-0.4 0.6,0 1.1,0.3 1.5,0.6 -0.2,1.9 -0.9,7.1 -0.9,9.7 0,0.7 0.2,1.4 0.5,2 0,0.6 -0.1,2.9 1.4,4.6 1.1,1.3 2.8,1.9 5,1.9 2.2,0 3.8,-0.6 5,-1.9 1.5,-1.7 1.5,-4 1.4,-4.6 0.3,-0.6 0.5,-1.3 0.5,-2 0,-2.5 -0.6,-7.8 -0.9,-9.7 0.4,-0.3 1,-0.6 1.5,-0.6 0.6,0 0.8,0.3 0.9,0.4 0.3,0.6 1,0.9 1.6,0.7 0.6,-0.2 1,-1 0.7,-1.6 -0.1,-0.7 -1.1,-1.9 -3,-1.9 z m -7.6,18.8 c -1.4,0 -2.5,-0.4 -3.1,-1.1 -0.2,-0.3 -0.4,-0.6 -0.5,-0.9 0.5,0.1 1,0.2 1.5,0.2 0.8,0 1.5,-0.2 2.1,-0.4 0.6,0.3 1.4,0.4 2.1,0.4 0.5,0 1,-0.1 1.5,-0.2 -0.1,0.3 -0.3,0.6 -0.5,0.9 -0.6,0.7 -1.7,1.1 -3.1,1.1 z"
     id="path4"
     style="fill:#4c6b9b;fill-opacity:1" />
  <path
     d="m 20.8,27.6 c 0.2,0.2 0.6,0.4 0.9,0.4 0.3,0 0.7,-0.1 0.9,-0.4 l 1.2,-1.3 c 0.5,-0.5 0.5,-1.3 0,-1.8 C 23.3,24 22.5,24 22,24.5 L 21.7,25 21.4,24.6 c -0.5,-0.5 -1.3,-0.5 -1.8,0 -0.5,0.5 -0.5,1.3 0,1.8 z"
     id="path6"
     style="fill:#4c6b9b;fill-opacity:1" />
</svg>
