<?xml version="1.0" encoding="UTF-8" standalone="no"?>
<!-- Created with Inkscape (http://www.inkscape.org/) -->

<svg
   xmlns:dc="http://purl.org/dc/elements/1.1/"
   xmlns:cc="http://creativecommons.org/ns#"
   xmlns:rdf="http://www.w3.org/1999/02/22-rdf-syntax-ns#"
   xmlns:svg="http://www.w3.org/2000/svg"
   xmlns="http://www.w3.org/2000/svg"
   xmlns:sodipodi="http://sodipodi.sourceforge.net/DTD/sodipodi-0.dtd"
   xmlns:inkscape="http://www.inkscape.org/namespaces/inkscape"
   width="786.78418mm"
   height="107.36996mm"
   viewBox="0 0 786.78418 107.36996"
   version="1.1"
   id="svg8"
   inkscape:version="0.92.4 (5da689c313, 2019-01-14)"
   sodipodi:docname="Logo-Omnivore.svg">
  <defs
     id="defs2" />
  <sodipodi:namedview
     id="base"
     pagecolor="#ffffff"
     bordercolor="#666666"
     borderopacity="1.0"
     inkscape:pageopacity="0.0"
     inkscape:pageshadow="2"
     inkscape:zoom="0.35"
     inkscape:cx="1492.637"
     inkscape:cy="158.28316"
     inkscape:document-units="mm"
     inkscape:current-layer="layer1"
     showgrid="false"
     inkscape:window-width="1920"
     inkscape:window-height="1017"
     inkscape:window-x="-8"
     inkscape:window-y="-8"
     inkscape:window-maximized="1"
     fit-margin-top="0"
     fit-margin-left="0"
     fit-margin-right="0"
     fit-margin-bottom="0" />
  <metadata
     id="metadata5">
    <rdf:RDF>
      <cc:Work
         rdf:about="">
        <dc:format>image/svg+xml</dc:format>
        <dc:type
           rdf:resource="http://purl.org/dc/dcmitype/StillImage" />
        <dc:title></dc:title>
      </cc:Work>
    </rdf:RDF>
  </metadata>
  <g
     inkscape:label="Layer 1"
     inkscape:groupmode="layer"
     id="layer1"
     transform="translate(-7.5955593,-153.20572)">
    <path
       inkscape:connector-curvature="0"
       d="m 106.32745,153.54292 c -7.693391,0 -12.565874,4.35959 -14.873892,8.20632 -7.693387,-4.10321 -17.181916,-6.41117 -28.209117,-6.41117 -11.027193,0 -20.515713,2.30796 -28.209106,6.41117 -2.308016,-3.84673 -6.924056,-8.20632 -14.873901,-8.20632 -7.436941,0 -12.5658747,5.64179 -12.5658747,13.84812 0,8.71914 6.4111687,17.95122 7.6933957,19.4899 -1.538679,4.8725 -2.051566,10.25791 -2.051566,16.15617 0,32.82509 26.670427,57.44394 50.263508,57.44394 23.849528,0 50.263503,-24.61885 50.263503,-57.44394 0,-5.89826 -0.76929,-11.28367 -2.05158,-16.15617 1.28224,-1.53868 7.69339,-10.77076 7.69339,-19.4899 -0.25645,-8.20633 -5.64181,-13.84812 -13.07876,-13.84812 z m -92.577174,13.84812 c 0,-4.61605 2.308018,-7.43693 6.154715,-7.43693 5.641815,0 8.206288,3.33381 9.48852,5.38532 -4.872481,3.84675 -8.719181,8.46278 -11.540096,14.10458 -1.795121,-3.07736 -4.103139,-7.94986 -4.103139,-12.05297 z m 49.494165,86.42248 c -24.618857,0 -43.852346,-27.43976 -43.852346,-51.03287 0,-26.414 15.64324,-41.03141 43.852346,-41.03141 28.209117,0 43.852349,14.61741 43.852349,41.28787 0,23.33665 -19.233486,50.77641 -43.852349,50.77641 z m 45.391029,-74.36951 c -2.8209,-5.6418 -6.6676,-10.51429 -11.54009,-14.10458 1.025789,-2.05151 3.8467,-5.38532 9.48852,-5.38532 3.8467,0 6.15472,2.82088 6.15472,7.43693 0,4.10311 -2.30802,8.97561 -4.10315,12.05297 z"
       id="path2"
       style="stroke-width:2.56446457" />
    <path
       inkscape:connector-curvature="0"
       d="m 82.734381,192.26636 c -5.128927,0 -9.232075,3.84665 -9.744971,4.35957 -0.76929,0.76959 -1.025784,1.79514 -1.025784,2.8209 0,0.25685 2.564464,18.20768 2.564464,25.64462 0,1.28231 -0.256463,2.0516 -1.025784,2.82099 -1.025791,1.02575 -2.820911,1.79514 -4.616033,1.79514 -1.538679,0 -2.820919,-0.25685 -3.590255,-1.02586 -1.28224,-1.02574 -2.820913,-1.02574 -4.103144,0 -0.769291,0.51274 -2.051576,1.02586 -3.590249,1.02586 -1.795128,0 -3.590256,-0.51274 -4.616041,-1.79514 -0.769291,-0.76959 -1.025784,-1.53868 -1.025784,-2.82099 0,-7.43694 2.308025,-25.38816 2.564465,-25.64462 0.256463,-1.02576 -0.256463,-2.0516 -1.025784,-2.8209 -0.512926,-0.51272 -4.359592,-4.35957 -9.744969,-4.35957 -4.87248,0 -7.436953,3.07735 -8.206289,4.87249 -0.512926,1.53869 0.256463,3.59019 1.795129,4.10312 1.53868,0.76958 3.590248,0 4.103143,-1.79514 0,-0.25685 0.512926,-1.02576 2.308017,-1.02576 1.53868,0 2.820912,0.76958 3.846696,1.53869 -0.512925,4.87249 -2.308016,18.20767 -2.308016,24.87532 0,1.79514 0.512926,3.59018 1.282232,5.12886 0,1.53868 -0.256463,7.43703 3.590249,11.79661 2.820911,3.33382 7.180504,4.87249 12.822328,4.87249 5.641817,0 9.744969,-1.53867 12.822322,-4.87249 3.846701,-4.35958 3.846701,-10.25793 3.590251,-11.79661 0.769286,-1.53868 1.282229,-3.33372 1.282229,-5.12886 0,-6.41117 -1.538679,-20.00283 -2.308013,-24.87532 1.025784,-0.76959 2.564463,-1.53869 3.846691,-1.53869 1.53869,0 2.051579,0.76958 2.308026,1.02576 0.769285,1.53868 2.564457,2.30806 4.103136,1.79514 1.538686,-0.51274 2.564476,-2.56443 1.795136,-4.10312 -0.256471,-1.79514 -2.820915,-4.87249 -7.693398,-4.87249 z m -19.48994,48.21197 c -3.59024,0 -6.41116,-1.02585 -7.94984,-2.82099 -0.512926,-0.76958 -1.025776,-1.53868 -1.282232,-2.30797 1.282232,0.25684 2.564472,0.51273 3.846696,0.51273 2.051577,0 3.846697,-0.51273 5.385376,-1.02576 1.538681,0.76959 3.590257,1.02576 5.385377,1.02576 1.282233,0 2.564472,-0.25685 3.846697,-0.51273 -0.256463,0.76958 -0.769291,1.53868 -1.282225,2.30797 -1.538681,1.79514 -4.359592,2.82099 -7.949849,2.82099 z"
       id="path4"
       style="stroke-width:2.56446457" />
    <path
       inkscape:connector-curvature="0"
       d="m 60.936426,224.32215 c 0.512926,0.51274 1.538679,1.02576 2.308015,1.02576 0.769292,0 1.795129,-0.25685 2.308017,-1.02576 l 3.07736,-3.33382 c 1.282233,-1.28222 1.282233,-3.33382 0,-4.61604 -1.282224,-1.28221 -3.3338,-1.28221 -4.61604,0 l -0.769291,1.28222 -0.769291,-1.02575 c -1.282226,-1.28222 -3.333801,-1.28222 -4.616033,0 -1.282224,1.28221 -1.282224,3.33381 0,4.61603 z"
       id="path6"
       style="stroke-width:2.56446457" />
    <text
       xml:space="preserve"
       style="font-style:normal;font-variant:normal;font-weight:normal;font-stretch:normal;font-size:149.12493896px;line-height:1.25;font-family:'Old Press Original';-inkscape-font-specification:'Old Press Original';letter-spacing:0px;word-spacing:0px;fill:#000000;fill-opacity:1;stroke:none;stroke-width:3.72812271"
       x="120.17422"
       y="260.35922"
       id="text817"><tspan
         sodipodi:role="line"
         id="tspan815"
         x="120.17422"
         y="260.35922"
         style="font-style:normal;font-variant:normal;font-weight:normal;font-stretch:normal;font-family:Raleway;-inkscape-font-specification:Raleway;stroke-width:3.72812271">MNIVORE</tspan></text>
  </g>
</svg>
