<?xml version="1.0" encoding="UTF-8" standalone="no"?>
<svg
   xmlns:dc="http://purl.org/dc/elements/1.1/"
   xmlns:cc="http://creativecommons.org/ns#"
   xmlns:rdf="http://www.w3.org/1999/02/22-rdf-syntax-ns#"
   xmlns:svg="http://www.w3.org/2000/svg"
   xmlns="http://www.w3.org/2000/svg"
   xmlns:sodipodi="http://sodipodi.sourceforge.net/DTD/sodipodi-0.dtd"
   xmlns:inkscape="http://www.inkscape.org/namespaces/inkscape"
   width="878.77472mm"
   height="286.44626mm"
   viewBox="0 0 878.77472 286.44627"
   version="1.1"
   id="svg8"
   inkscape:version="1.0.1 (3bc2e813f5, 2020-09-07)"
   sodipodi:docname="omnivore-logo.svg"
   inkscape:export-filename="C:\Users\karls\Google Drive\Business-Projekte\Schleifenbaum Online Services\Website\Omnivore\logo\omnivore-logo.png"
   inkscape:export-xdpi="14.453671"
   inkscape:export-ydpi="14.453671">
  <defs
     id="defs2" />
  <sodipodi:namedview
     id="base"
     pagecolor="#ffffff"
     bordercolor="#666666"
     borderopacity="1.0"
     inkscape:pageopacity="0.0"
     inkscape:pageshadow="2"
     inkscape:zoom="0.175"
     inkscape:cx="900.25213"
     inkscape:cy="-690.2708"
     inkscape:document-units="mm"
     inkscape:current-layer="layer1"
     showgrid="false"
     inkscape:window-width="1920"
     inkscape:window-height="1017"
     inkscape:window-x="-8"
     inkscape:window-y="-8"
     inkscape:window-maximized="1"
     fit-margin-top="0"
     fit-margin-left="0"
     fit-margin-right="0"
     fit-margin-bottom="0"
     inkscape:document-rotation="0" />
  <metadata
     id="metadata5">
    <rdf:RDF>
      <cc:Work
         rdf:about="">
        <dc:format>image/svg+xml</dc:format>
        <dc:type
           rdf:resource="http://purl.org/dc/dcmitype/StillImage" />
        <dc:title></dc:title>
      </cc:Work>
    </rdf:RDF>
  </metadata>
  <g
     inkscape:label="Layer 1"
     inkscape:groupmode="layer"
     id="layer1"
     transform="translate(-10.241393,-157.77628)">
    <path
       inkscape:connector-curvature="0"
       d="m 186.40641,157.77628 c -13.72714,0 -22.42099,7.77871 -26.53914,14.64234 -13.72713,-7.32126 -30.65729,-11.4393 -50.33286,-11.4393 -19.675581,0 -36.605725,4.11804 -50.332866,11.4393 -4.118139,-6.86363 -12.354431,-14.64234 -26.539154,-14.64234 -13.269559,0 -22.420997,10.06651 -22.420997,24.70888 0,15.55735 11.4393,32.02994 13.727147,34.77537 -2.745429,8.69389 -3.660561,18.30295 -3.660561,28.82707 0,58.56904 47.587419,102.49588 89.684011,102.49588 42.55416,0 89.684,-43.92684 89.684,-102.49588 0,-10.52412 -1.37263,-20.13318 -3.66059,-28.82707 2.28787,-2.74543 13.72714,-19.21802 13.72714,-34.77537 -0.45758,-14.64237 -10.06655,-24.70888 -23.33613,-24.70888 z M 21.223111,182.48516 c 0,-8.23631 4.118143,-13.26954 10.981714,-13.26954 10.066559,0 14.642288,5.94844 16.930144,9.6089 -8.693854,6.86366 -15.55743,15.09994 -20.590723,25.16647 -3.202992,-5.49086 -7.321135,-14.18475 -7.321135,-21.50583 z m 88.311299,154.2016 c -43.926869,0 -78.244733,-48.96012 -78.244733,-91.05675 0,-47.12988 27.911867,-73.21139 78.244733,-73.21139 50.33286,0 78.24472,26.08151 78.24472,73.66898 0,41.63904 -34.31786,90.59916 -78.24472,90.59916 z m 80.99015,-132.69577 c -5.03327,-10.06653 -11.89685,-18.7604 -20.59072,-25.16647 1.8303,-3.66046 6.86358,-9.6089 16.93015,-9.6089 6.86358,0 10.98172,5.03323 10.98172,13.26954 0,7.32108 -4.11814,16.01497 -7.32115,21.50583 z"
       id="path2"
       style="fill:#4c6b9b;fill-opacity:1;stroke-width:4.57571" />
    <path
       inkscape:connector-curvature="0"
       d="m 144.30985,226.86961 c -9.15142,0 -16.47258,6.86349 -17.38772,7.77868 -1.37263,1.37316 -1.83029,3.20302 -1.83029,5.03326 0,0.45829 4.57572,32.48754 4.57572,45.7571 0,2.28799 -0.4576,3.66062 -1.83029,5.03342 -1.83029,1.83023 -5.03328,3.20303 -8.23627,3.20303 -2.74543,0 -5.0333,-0.45829 -6.40601,-1.83042 -2.28787,-1.8302 -5.03329,-1.8302 -7.32115,0 -1.37262,0.91487 -3.66058,1.83042 -6.406014,1.83042 -3.203,0 -6.406005,-0.91487 -8.236289,-3.20303 -1.372628,-1.37316 -1.830282,-2.74543 -1.830282,-5.03342 0,-13.26956 4.118155,-45.2995 4.575715,-45.7571 0.457601,-1.83024 -0.457601,-3.66062 -1.830283,-5.03326 -0.915202,-0.91484 -7.778718,-7.77868 -17.38772,-7.77868 -8.693852,0 -13.269581,5.49084 -14.642289,8.69387 -0.915202,2.74545 0.457601,6.40589 3.203007,7.3211 2.74543,1.37314 6.405995,0 7.321142,-3.20303 0,-0.45829 0.915201,-1.83024 4.11814,-1.83024 2.745431,0 5.033287,1.37315 6.86357,2.74545 -0.9152,8.69387 -4.118139,32.48752 -4.118139,44.38445 0,3.20303 0.915202,6.40588 2.287856,9.15131 0,2.74543 -0.4576,13.26972 6.405998,21.04841 5.033285,5.94846 12.812004,8.69387 22.878598,8.69387 10.06656,0 17.38772,-2.74541 22.87857,-8.69387 6.86357,-7.77869 6.86357,-18.30298 6.406,-21.04841 1.37262,-2.74543 2.28785,-5.94828 2.28785,-9.15131 0,-11.4393 -2.74543,-35.69058 -4.11814,-44.38445 1.83029,-1.37316 4.57572,-2.74545 6.86356,-2.74545 2.74545,0 3.66059,1.37315 4.11816,1.83024 1.37262,2.74543 4.5757,4.11822 7.32113,3.20303 2.74544,-0.91487 4.57574,-4.57565 3.20302,-7.3211 -0.45762,-3.20303 -5.03329,-8.69387 -13.72715,-8.69387 z m -34.77544,86.02349 c -6.40598,0 -11.439298,-1.8304 -14.184732,-5.03343 -0.915202,-1.37314 -1.830268,-2.74543 -2.287857,-4.11806 2.287857,0.45828 4.575724,0.91486 6.863572,0.91486 3.660597,0 6.863587,-0.91486 9.609017,-1.83024 2.74543,1.37316 6.40601,1.83024 9.609,1.83024 2.28786,0 4.57573,-0.4583 6.86357,-0.91486 -0.4576,1.37315 -1.37263,2.74543 -2.28784,4.11806 -2.74544,3.20303 -7.77872,5.03343 -14.18473,5.03343 z"
       id="path4"
       style="fill:#4c6b9b;fill-opacity:1;stroke-width:4.57571" />
    <path
       inkscape:connector-curvature="0"
       d="m 105.41627,284.066 c 0.9152,0.91487 2.74543,1.83024 4.11814,1.83024 1.37263,0 3.203,-0.45829 4.11814,-1.83024 l 5.49086,-5.94845 c 2.28786,-2.28784 2.28786,-5.94846 0,-8.2363 -2.28784,-2.28781 -5.94842,-2.28781 -8.23629,0 l -1.37263,2.28784 -1.37263,-1.83022 c -2.28785,-2.28784 -5.94843,-2.28784 -8.236297,0 -2.287838,2.28781 -2.287838,5.94844 0,8.23627 z"
       id="path6"
       style="fill:#4c6b9b;fill-opacity:1;stroke-width:4.57571" />
    <text
       xml:space="preserve"
       style="font-style:normal;font-variant:normal;font-weight:normal;font-stretch:normal;font-size:149.125px;line-height:1.25;font-family:'Old Press Original';-inkscape-font-specification:'Old Press Original';letter-spacing:0px;word-spacing:0px;fill:#000000;fill-opacity:1;stroke:none;stroke-width:3.72812"
       x="199.54929"
       y="350.31738"
       id="text817"><tspan
         sodipodi:role="line"
         id="tspan815"
         x="199.54929"
         y="350.31738"
         style="font-style:normal;font-variant:normal;font-weight:normal;font-stretch:normal;font-family:Raleway;-inkscape-font-specification:Raleway;fill:#4c6b9b;fill-opacity:1;stroke-width:3.72812">MNIVORE</tspan></text>
    <text
       xml:space="preserve"
       style="font-style:normal;font-variant:normal;font-weight:normal;font-stretch:normal;font-size:82.4367px;line-height:1.25;font-family:'Old Press Original';-inkscape-font-specification:'Old Press Original';letter-spacing:0px;word-spacing:0px;fill:#000000;fill-opacity:1;stroke:none;stroke-width:2.90394"
       x="205.08937"
       y="427.07507"
       id="text817-4"><tspan
         sodipodi:role="line"
         id="tspan815-8"
         x="205.08937"
         y="427.07507"
         style="font-style:normal;font-variant:normal;font-weight:normal;font-stretch:normal;font-size:82.4367px;font-family:Raleway;-inkscape-font-specification:Raleway;fill:#d27a4e;fill-opacity:0.988235;stroke-width:2.90394">MT preprocessor</tspan></text>
  </g>
</svg>
